<svg width="120" height="120" viewBox="0 0 120 120" fill="none" xmlns="http://www.w3.org/2000/svg">
<path d="M120 59.9984C120 93.1364 93.1364 119.997 60.0016 119.997C26.8636 119.997 0 93.1364 0 59.9984C0 26.8636 26.8636 0 59.9984 0C93.1364 0 120 26.8636 120 59.9984Z" fill="#00C01E"/>
<path d="M100.098 59.4185C99.5966 55.1573 95.9479 51.968 91.6574 51.968H62.2137V68.1526H83.6368C82.9494 78.9358 73.2575 86.9336 61.2689 86.9336C46.1822 86.9336 33.9916 74.528 34.3434 59.3631C34.6725 45.068 46.332 33.4085 60.6239 33.0762C67.2795 32.9198 73.4009 35.1839 78.18 39.0444C81.7603 41.7712 86.8783 41.0772 89.605 37.497C92.3318 33.9167 91.6444 28.7987 88.0641 26.072C80.6983 20.2471 71.3876 16.7678 61.2689 16.7678C37.5067 16.7678 18.4195 35.6368 18.0937 59.3924C17.7614 83.5488 37.1875 103.236 61.2689 103.236C82.894 103.236 100.369 85.6892 100.369 64.0478C100.372 62.4808 100.277 60.9366 100.098 59.4185Z" fill="white"/>
<path d="M70.306 60.057C70.306 64.5267 66.6833 68.1493 62.2137 68.1493C57.744 68.1493 54.1214 64.5267 54.1214 60.057C54.1214 55.5874 57.744 51.9647 62.2137 51.9647C66.6866 51.968 70.306 55.5906 70.306 60.057Z" fill="#0028AC"/>
</svg>
